<svg xmlns="http://www.w3.org/2000/svg" viewBox="0 0 315 315" style="enable-background:new 0 0 315 315" xml:space="preserve"><path d="M157.5 0C93.319 0 41.103 52.215 41.103 116.397c0 62.138 106.113 190.466 110.63 195.898a7.502 7.502 0 0 0 11.534 0c4.518-5.433 110.63-133.76 110.63-195.898C273.897 52.215 221.682 0 157.5 0zm0 295.598c-9.409-11.749-28.958-36.781-48.303-65.397-34.734-51.379-53.094-90.732-53.094-113.804C56.103 60.486 101.59 15 157.5 15c55.91 0 101.397 45.486 101.397 101.397 0 23.071-18.359 62.424-53.094 113.804-19.346 28.616-38.894 53.648-48.303 65.397z"/><path d="M195.657 213.956a7.5 7.5 0 0 0-10.413 2.017c-10.121 14.982-21.459 30.684-33.699 46.67a7.5 7.5 0 0 0 1.395 10.514 7.463 7.463 0 0 0 4.554 1.546 7.489 7.489 0 0 0 5.96-2.941c12.42-16.22 23.933-32.165 34.219-47.392a7.5 7.5 0 0 0-2.016-10.414zM157.5 57.5C123.589 57.5 96 85.089 96 119s27.589 61.5 61.5 61.5S219 152.911 219 119s-27.589-61.5-61.5-61.5zm0 108c-25.64 0-46.5-20.86-46.5-46.5s20.86-46.5 46.5-46.5c25.641 0 46.5 20.86 46.5 46.5s-20.859 46.5-46.5 46.5z"/></svg>