<svg xmlns="http://www.w3.org/2000/svg" fill="#fff" viewBox="0 0 502 502" style="enable-background:new 0 0 502 502" xml:space="preserve"><path d="M324.453 178.65c0-57.789-47.015-104.803-104.803-104.803-57.789 0-104.804 47.015-104.804 104.803 0 57.789 47.015 104.804 104.804 104.804 57.788 0 104.803-47.015 104.803-104.804zM219.65 263.454c-46.761 0-84.804-38.043-84.804-84.804s38.043-84.803 84.804-84.803 84.803 38.042 84.803 84.803c0 46.761-38.042 84.804-84.803 84.804z"/><path d="M130.652 90.081c2.39 0 4.788-.852 6.701-2.58 22.593-20.412 51.82-31.654 82.297-31.654 17.038 0 33.525 3.42 49.006 10.165 5.059 2.206 10.955-.11 13.162-5.173 2.206-5.063-.11-10.956-5.174-13.162-18.015-7.85-37.19-11.83-56.994-11.83-35.44 0-69.429 13.074-95.705 36.814-4.098 3.702-4.419 10.026-.716 14.124a9.975 9.975 0 0 0 7.423 3.296zm-24.011 18.065c-4.891-2.567-10.936-.684-13.502 4.206-10.659 20.301-16.293 43.227-16.293 66.299 0 5.523 4.478 10 10 10s10-4.477 10-10c0-19.846 4.841-39.557 14-57.002 2.568-4.891.685-10.936-4.205-13.503z"/><path d="m458.071 484.929-74.707-74.707C392.252 397.725 397.5 382.469 397.5 366c0-29.059-16.289-54.383-40.214-67.329 27.213-51.825 41.013-92.184 41.013-120.021C398.3 80.142 318.158 0 219.65 0S41 80.142 41 178.65c0 95.435 163.741 310.329 170.711 319.431a10 10 0 0 0 15.878 0c.227-.297 22.133-28.953 49.771-69.301 12.388 8.636 27.427 13.72 43.64 13.72 18.514 0 35.511-6.614 48.758-17.599l74.17 74.17A9.97 9.97 0 0 0 451 502c2.56 0 5.118-.976 7.071-2.929 3.905-3.905 3.905-10.237 0-14.142zm-238.42-9.595c-14.17-19.11-45.22-61.925-75.951-110.546C89.598 279.187 61 214.821 61 178.65 61 91.17 132.17 20 219.65 20S378.3 91.17 378.3 178.65c0 24.966-13.405 62.928-39.853 112.881A76.375 76.375 0 0 0 321 289.5c-42.183 0-76.5 34.318-76.5 76.5 0 18.705 6.758 35.854 17.947 49.16-18.074 26.469-33.817 48.07-42.796 60.174zM321 422.5c-31.154 0-56.5-25.346-56.5-56.5s25.346-56.5 56.5-56.5 56.5 25.346 56.5 56.5-25.346 56.5-56.5 56.5z"/></svg>